<?xml version="1.0" encoding="UTF-8"?>
<svg id="b" data-name="レイヤー 2" xmlns="http://www.w3.org/2000/svg" viewBox="0 0 565.57 207.78">
  <g id="c" data-name="レイヤー 1">
    <g>
      <g>
        <path d="M559.6,48.79c0,4.46.05,8.72-.01,12.98-.05,4.04-.06,8.08-.34,12.11-.31,4.42-2.43,6.32-6.92,6.52-2.3.1-4.61.01-7.11.01,0,2.98-.01,5.45.01,7.92,0,.53.1,1.05.19,1.89,2.39,0,4.7-.05,7.01.01,2.87.07,3.95.98,4.37,3.76.17,1.15.19,2.33.21,3.5.04,1.3.01,2.62.01,4.21h-11.74v5.5h-13.85v-5.7c-2.37,0-4.52-.09-6.66.07-.46.03-1.17.93-1.22,1.47-.17,1.61.04,3.27-.1,4.89-.19,2.09.49,2.83,2.7,2.81,10.81-.11,21.63-.05,32.44-.05,3.1,0,3.1.01,3.11,3.19,0,1.62.02,3.26-.01,4.9-.07,2.6-.58,3.13-3.22,3.13-11.65.01-23.33.01-34.98.01h-8.85v15.81h6.32c-.01,5.09.7,9.96-1.05,14.66-.77,2.08-2.59,3.06-4.8,3.08-4.27.06-8.56.03-12.83.02-2.22,0-2.66-1.44-2.66-3.28.01-9.17.01-18.35.01-27.51v-2.64h-3.44c-.29,3.32-.47,6.63-.9,9.91-.66,5-1.65,9.95-2.22,14.96-.56,4.86-5.78,8.61-10.7,8.58-1.01,0-2.03.01-3.04,0-2.87-.02-3.16-.51-2.38-3.38,1.23-4.49,2.48-8.97,3.51-13.5,2.39-10.69,2.61-21.59,2.72-32.47.18-17.88.05-35.76.07-53.64,0-3.54.3-3.84,3.9-3.84h69.76c.81-.02,1.65.07,2.69.11M496.8,60.89c-.08.31-.12.39-.12.47-.07,15.92-.12,31.84-.21,47.75,0,1.28.58,1.59,1.7,1.58,2.57-.05,5.13,0,7.69-.01,4.35-.02,3.86.4,3.88-3.86.02-5.16.01-5.19-5.11-5.41-1.87-.08-3.54-.67-3.98-2.57-.49-2.17-.59-4.44-.73-6.66-.09-1.32.69-1.96,2.03-1.95,1.94.03,3.89-.05,5.82.01,1.35.05,2.03-.36,1.98-1.83-.08-2.01-.09-4.04,0-6.06.05-1.5-.68-1.86-1.99-1.82-2.09.05-4.19.09-6.29-.06-.54-.03-1.48-.74-1.5-1.16-.12-3.54-.07-7.09-.07-10.92h45.72v-7.5h-48.82ZM531.24,90.1v-9.53c-2.28,0-4.43-.05-6.58.06-.4.02-1.08.7-1.1,1.1-.1,2.76-.04,5.52-.04,8.37h7.72Z" style="fill: #fff;"/>
        <path d="M293.72,155.26c-.3-4.67,1.28-8.66,3.57-12.41,3.62-5.89,7.28-11.75,10.92-17.63.4-.64.75-1.31,1.25-2.24-.89-.07-1.54-.16-2.19-.16-4.27-.02-8.55.03-12.82-.03-3.93-.07-5.43-1.34-6.4-5.1-.03-.16-.1-.29-.13-.45-1.36-6.03-.66-6.93,5.38-6.93h79.69c0,3.65.08,7.05-.05,10.44-.05,1.86-1.54,2.07-3.05,2.06-5.52-.01-11.03,0-16.55,0-7.38,0-14.77.05-22.15-.03-1.51-.02-2.37.45-3.15,1.76-3.35,5.6-6.82,11.12-10.24,16.67-.35.58-.64,1.19-1.13,2.11,1.11.05,1.91.12,2.73.12,6.14.01,12.28-.05,18.42.05.83.01,2.01.5,2.44,1.15,2.21,3.38,4.21,6.89,6.43,10.62h-52.97Z" style="fill: #fff;"/>
        <path d="M233.41,116.5c-4.23,10.11-9.42,19.09-16.35,26.97-2.82,3.2-5.96,6.11-8.96,9.14-4.36,4.41-10.11,2.43-13.19-.91-4.39-4.79-4.28-5.32.7-9.35,13.75-11.09,22.83-25.22,27.18-42.33.44-1.72,1.09-2.21,2.79-2.19,5.97.1,11.93.05,17.47.05,2.24,5.89,4.11,11.55,6.5,16.98,5.6,12.73,15.12,22.03,26.64,29.48,3.37,2.17,3.39,2.49.69,5.33-.75.79-1.59,1.52-2.23,2.38-3.4,4.6-9.96,3.81-13.52.9-11.56-9.41-21.1-20.37-26.67-34.42-.22-.55-.54-1.06-1.05-2.03" style="fill: #fff;"/>
        <path d="M322.1,63.2h16.42c0-2.84-.01-5.6,0-8.36,0-5.23,1.75-7.11,6.98-7.51,1.4-.1,2.8-.16,4.19-.3,1.78-.19,2.59.52,2.57,2.35-.04,3.9-.02,7.77,0,11.67,0,.68.1,1.36.17,2.22h22.82c0,3.78.1,7.41-.05,11.02-.07,1.68-1.49,1.93-2.94,1.92-5.68-.02-11.36-.01-17.03-.01h-2.98c0,2.06-.1,3.96.02,5.86.15,2.27-.83,3.04-3.01,2.94-2.8-.12-5.6-.05-8.41-.02-1.66.02-2.4-.68-2.34-2.38.07-1.99.01-4.01.01-6.2h-16.42c0,2.08-.04,4.08.01,6.08.05,1.79-.77,2.54-2.54,2.5-2.95-.04-5.91-.04-8.86,0-1.77.02-2.55-.71-2.46-2.52.1-1.93.02-3.88.02-6.1-.95-.05-1.76-.13-2.57-.13-3.96-.01-7.92,0-11.9-.01-5.37-.01-7.63-1.99-8.36-7.31-.03-.22-.03-.45-.06-.69-.4-4.65-.19-4.89,4.5-4.89h18.39c0-3.29-.01-6.3,0-9.31.02-3.86,1.31-5.55,5.11-6.33,1.97-.39,4.01-.4,6.02-.62,1.88-.21,2.74.59,2.7,2.51-.04,3.65-.01,7.31-.01,10.96v2.66h0Z" style="fill: #fff;"/>
        <path d="M224.81,79.71v-8.2c0-3.81.17-7.63-.03-11.42-.39-7.27,1.56-9.43,9.87-10.34,1.61-.18,3.27-.01,4.89-.18,2-.2,2.59.7,2.57,2.56-.08,4.51-.07,9.02-.01,13.52.05,4.56.18,9.14.27,13.7,4.63.12,9.26.29,13.89.35,5.52.05,11.04,0,16.56.01.83,0,1.67.08,2.67.12,0,4.15.03,8.1-.02,12.06-.02,1.57-.98,2.38-2.54,2.45-.62.03-1.25.01-1.87.01-22.46.01-44.93.01-67.41,0-.69,0-1.39.01-2.09-.01-8.26-.29-10.63-5.01-10.26-12.63.03-.6.85-1.42,1.49-1.69.82-.35,1.82-.29,2.74-.29,8.72-.02,17.42-.01,26.12-.01h3.16Z" style="fill: #fff;"/>
        <path d="M425.42,136.31h41.06c2.99,0,2.99.01,2.99,3.09,0,2.79,0,5.59-.01,8.39,0,2.07-.91,3.07-3.14,3.06-26.44-.03-52.86-.01-79.3-.03-3.78,0-5.69-1.52-6.22-5.22-.33-2.36-.2-4.8-.29-7.2-.04-1.38.69-1.98,1.99-2.03.86-.03,1.7-.07,2.56-.07,13.46.01,26.91.01,40.36.01" style="fill: #fff;"/>
        <rect x="415.78" y="75.9" width="18.51" height="56.96" style="fill: #fff;"/>
        <path d="M460.77,57.8c0,4.33.11,8.37-.1,12.38-.04.78-1.31,1.64-2.18,2.18-.51.33-1.37.08-2.07.08h-58.55c-6.31,0-8.26-1.77-8.94-8.11q-.69-6.51,5.91-6.52h65.93Z" style="fill: #fff;"/>
        <path d="M364.53,90.73c0,3.47.15,6.58-.1,9.65-.07.8-1.27,1.65-2.14,2.18-.5.32-1.36.09-2.06.09h-57.36c-7.28,0-9.82-2.99-8.48-10.18.12-.66,1.08-1.23,1.77-1.68.32-.22.9-.05,1.37-.05h67Z" style="fill: #fff;"/>
        <path d="M558.66,138.69h-9.89c.88.85,1.3,1.31,1.8,1.7,4.09,3.21,8.22,6.39,12.32,9.59.55.43,1.24.79,1.58,1.36.53.87,1.23,1.96,1.08,2.81-.1.57-1.59,1.29-2.43,1.25-4.56-.19-9.2-.15-13.64-1.08-2.88-.61-5.76-2.37-8.07-4.29-5.86-4.85-11.4-10.1-17.06-15.18-.58-.51-1.35-.97-1.64-1.63-.52-1.21-1.33-2.78-.94-3.76.39-.95,2.14-1.82,3.31-1.86,5.74-.19,11.5-.1,17.25-.09,3.57,0,7.15-.03,10.72.09,3.43.11,4.82,1.48,5.31,4.93.12.85.23,1.7.27,2.55.06,1.07.03,2.15.03,3.61" style="fill: #fff;"/>
        <path d="M357.98,155.5c-5.12,1.81-8.14-1.46-10.66-6.48-2.6-5.2-5.92-10.03-8.9-15.03-1.54-2.58-1.27-3.08,1.65-3.09,3.18-.01,6.38.1,9.56-.02,3.34-.13,6.06,1.11,7.85,3.76,3.7,5.45,7.23,11.03,10.65,16.66,1.37,2.25.08,4.12-2.63,4.18-2.17.06-4.36.02-7.52.02" style="fill: #fff;"/>
      </g>
      <g>
        <g>
          <path d="M538.42,183.94c-.2,2.9-.12,5.64-.61,8.28-.72,3.83-3.13,5.53-6.94,5.47-3.71-.05-6.27-1.76-6.57-5.53-.42-5.38-.38-10.83.06-16.2.29-3.58,2.92-5.32,6.48-5.37,3.75-.07,6.2,1.59,6.9,5.22.53,2.7.48,5.52.68,8.13M528.77,184.27c0,2.25-.07,4.5.01,6.74.05,1.39.53,2.73,2.19,2.79,1.68.07,2.29-1.25,2.32-2.64.09-4.64.1-9.27.01-13.92-.02-1.34-.54-2.73-2.28-2.66-1.85.05-2.18,1.49-2.23,2.95-.07,2.26-.02,4.49-.02,6.74" style="fill: #fff;"/>
          <path d="M556.56,183.57c0-3.41.03-6.81-.02-10.21-.01-1.42.13-2.35,1.96-2.36,1.7,0,2.09.64,2.08,2.2-.07,7.37-.02,14.75-.03,22.13,0,.54-.11,1.06-.17,1.58-2.19.73-3.34.12-4.06-2.08-1.24-3.78-2.78-7.47-4.71-11.08,0,3.76-.07,7.53.03,11.31.05,1.6-.47,2.17-2.1,2.19-1.67.01-2.09-.64-2.08-2.21.07-7.3,0-14.6.08-21.9.01-.69.87-2.01,1.1-1.96.99.21,2.39.6,2.74,1.34,1.68,3.64,3.07,7.41,4.57,11.13.19-.03.4-.06.61-.08" style="fill: #fff;"/>
          <path d="M414.55,196.97c-.05-.77-.11-1.38-.11-1.98v-23.6c.57-.13,1-.3,1.43-.33,3.12-.13,3.12-.12,3.12,2.92,0,1.71.13,3.43-.03,5.12-.22,2.25.39,3.13,2.88,3.14,2.64.01,2.9-1.19,2.8-3.27-.12-2.54-.03-5.07-.03-7.55.51-.19.72-.32.93-.33,3.66-.2,3.66-.19,3.66,3.54v22.35c-1.05.08-1.93.14-2.83.22-1.29.11-1.8-.45-1.78-1.76.06-2.64-.1-5.29.05-7.91.14-2.55-1.53-2.15-3.06-2.19-1.51-.03-2.74-.05-2.62,2.12.17,3.08.04,6.18.04,9.51h-4.45Z" style="fill: #fff;"/>
          <path d="M461.63,183.03c2.65,1.19,3.77,3.15,3.93,5.78.34,5.71-1.87,8.19-7.56,8.39q-5.68.2-5.68-5.52c0-6.12.06-12.26-.03-18.38-.02-1.72.48-2.45,2.25-2.26,1.16.12,2.33,0,3.5.04,3.77.18,5.6,1.28,6.46,3.88,1.13,3.45.5,5.33-2.87,8.07M461.09,189.28c-.32-1.06-.51-2.38-1.15-3.46-.32-.55-1.42-.63-2.18-.92-.22.6-.61,1.19-.64,1.8-.1,1.7-.11,3.41.01,5.1.04.62.68,1.75.85,1.71.83-.17,1.89-.47,2.33-1.1.52-.75.5-1.88.78-3.13M457.08,178.02c0,.38-.11.8.02,1.13.28.76.67,1.48,1.01,2.22.75-.65,1.82-1.16,2.15-1.96.38-.92.37-2.22.02-3.15-.27-.72-1.33-1.16-2.03-1.73-.39.62-.89,1.21-1.15,1.88-.17.47-.02,1.06-.02,1.61" style="fill: #fff;"/>
          <path d="M398.29,189.25c-.48,1.63-.97,3.23-1.41,4.85-.96,3.49-1.07,3.55-5.24,2.75.77-2.66,1.37-5.37,2.36-7.91,1.36-3.51,1.42-6.82-.1-10.32-1-2.31-1.52-4.81-2.28-7.26,4.22-.72,4.25-.69,5.38,2.95.4,1.32.85,2.63,1.49,4.64.71-2.06,1.2-3.46,1.67-4.88,1.1-3.37,1.36-3.52,5.27-2.64-1.03,3.32-2.19,6.59-3.05,9.94-.37,1.41-.42,3.06-.09,4.47.87,3.67,2.04,7.28,3.08,10.92-3.78,1.04-4.26.76-5.23-2.7-.46-1.6-.96-3.21-1.42-4.81-.16.01-.3,0-.43,0" style="fill: #fff;"/>
          <path d="M381.39,184.96c-4.37.94-4.33.94-4.22,6.75.08,4.17,3.6.89,5.12,3.06.62,2.11.41,2.41-2.38,2.44-1.95.01-3.88-.03-5.83,0-1.25.03-1.8-.42-1.79-1.76.04-7.55.03-15.08,0-22.62-.01-1.3.49-1.82,1.79-1.78,2.25.05,4.51.05,6.76,0,1.2-.03,1.67.43,1.68,1.62,0,1.2-.28,1.84-1.67,1.93-3.66.2-3.61.26-3.67,4.05-.03,1.91-.13,3.55,2.65,3.4.44,0,1,1.82,1.56,2.91" style="fill: #fff;"/>
          <path d="M489.04,174.52c-.81-3.07-.55-3.46,2.42-3.46,2.57,0,5.12.03,7.69-.01,1.29-.03,1.82.44,1.79,1.76-.02,1.11-.08,2.09-1.56,1.97-1.82-.13-2.16.83-2.15,2.44.08,5.89-.05,11.79.08,17.69.05,1.91-.66,2.35-2.41,2.35-1.81.01-2.65-.38-2.59-2.44.13-5.35.05-10.71.05-16.06q0-3.58-3.32-4.24" style="fill: #fff;"/>
          <path d="M443.21,184.04c0,3.72-.1,7.44.05,11.15.08,2.03-1.05,2.05-2.47,2.03-1.36-.02-2.57.14-2.55-1.96.11-7.36.12-14.72,0-22.07-.03-2.15,1.06-2.14,2.59-2.16,1.52-.01,2.5.12,2.43,2.09-.15,3.63-.05,7.28-.05,10.92" style="fill: #fff;"/>
          <path d="M479.57,184.45c0,3.65-.09,7.3.02,10.95.07,2.01-1.18,1.83-2.42,1.8-1.21-.03-2.55.3-2.54-1.74.06-7.54.07-15.07,0-22.61-.02-2.2,1.44-1.71,2.7-1.81,1.46-.11,2.34.15,2.28,1.97-.13,3.82-.04,7.63-.04,11.44" style="fill: #fff;"/>
          <path d="M514.93,184.05c0,3.72-.1,7.43.04,11.15.08,2.04-1.06,2.03-2.48,2.01-1.37-.01-2.56.12-2.52-1.96.1-7.44.09-14.88,0-22.32-.02-2.14,1.27-1.87,2.59-1.89,1.3-.01,2.46-.11,2.4,1.84-.11,3.72-.03,7.44-.03,11.17" style="fill: #fff;"/>
        </g>
        <g>
          <path d="M263.08,187.17v-3.18c2.25,0,4.4-.07,6.53.07.4.03,1.05.9,1.06,1.39.09,3.42.08,6.85.01,10.26-.01.48-.53,1.36-.81,1.35-1.11-.02-2.21-.33-3.29-1.05-.95.5-1.84,1.16-2.84,1.46-3.27.98-6.76-1.01-7.08-4.85-.49-5.61-.42-11.31.01-16.93.25-3.36,3.18-5.11,6.77-5.1,3.52.01,5.71,1.67,6.6,5.06.21.81.28,1.68.34,2.53.09,1.34.29,2.62-1.86,2.58-1.84-.02-3.04-.19-2.77-2.47.09-.8-.07-1.79-.49-2.44-.4-.61-1.3-1.15-2.01-1.18-.58-.03-1.35.62-1.75,1.18-.37.52-.49,1.31-.5,1.99-.05,4.2-.05,8.4.01,12.59.01.82.23,1.73.65,2.43.74,1.27,2.44,1.27,3.37.15,1.72-2.06.78-5.16-1.95-5.84" style="fill: #fff;"/>
          <path d="M196.28,184c0-3.65.05-7.31-.02-10.96-.03-1.52.53-2.1,2.04-1.99,2.01.15,4.05.04,6.03.36,3.45.55,5.02,2.09,5.17,5.53.21,4.81.23,9.63,0,14.44-.17,3.62-2.26,5.39-5.88,5.67q-7.35.58-7.35-6.76v-6.29h0ZM201.24,174.8c0,5.92-.01,11.73.04,17.53,0,.46.62,1.31.88,1.29.79-.08,1.7-.33,2.24-.84.41-.4.41-1.31.42-2,.03-4.42,0-8.85.02-13.27,0-2.24-1.09-3.08-3.6-2.71" style="fill: #fff;"/>
          <path d="M336.87,183.92c.19-2.59.12-5.34.62-7.98.7-3.7,3.07-5.37,6.79-5.35,3.67.02,6.37,1.79,6.66,5.47.41,5.36.41,10.82-.01,16.19-.28,3.66-2.98,5.43-6.66,5.45-3.74.02-6.12-1.64-6.8-5.33-.51-2.72-.41-5.55-.6-8.45M346.51,184.25c0-2.31.07-4.64-.03-6.96-.05-1.37-.54-2.93-2.21-2.62-.87.17-2.13,1.5-2.17,2.37-.22,4.71-.19,9.43-.11,14.14.02,1.37.65,2.7,2.34,2.62,1.64-.09,2.13-1.41,2.18-2.81.06-2.24,0-4.49,0-6.74" style="fill: #fff;"/>
          <path d="M327.84,197.21c-1.31,0-2.31-.05-3.31.01-1.31.09-1.91-.52-2.28-1.75-.93-3.18-1.98-6.32-2.98-9.48-.21-.02-.42-.04-.64-.07-.23.97-.62,1.92-.67,2.9-.1,2.17-.13,4.35,0,6.52.12,1.94-1.05,1.89-2.36,1.87-1.34-.01-2.64.22-2.62-1.9.09-7.46.09-14.91,0-22.37-.02-2.15,1.31-1.84,2.64-1.88,1.38-.06,2.45.01,2.34,1.9-.13,2.3-.03,4.62.51,7.09.72-1.8,1.46-3.61,2.18-5.41,1.58-4.02,1.9-4.18,6.67-3.23-1.26,2.62-2.39,5.23-3.72,7.73-.93,1.78-1.06,3.36-.3,5.3,1.62,4.08,2.97,8.28,4.54,12.77" style="fill: #fff;"/>
          <path d="M233.33,196.88c-4.16.82-4.26.76-5.06-3.07-.23-1.17-.44-2.27-2.07-2.27-1.68-.01-2,.95-2.23,2.34-.59,3.65-.87,3.78-5.27,3.02.75-3.68,1.47-7.37,2.23-11.04.9-4.41,1.89-8.79,2.72-13.21.28-1.51,1.16-1.59,2.33-1.59,1.22-.01,2.34-.06,2.66,1.54,1.56,7.83,3.16,15.65,4.74,23.47.04.21-.03.45-.05.81M226.37,179.9c-.17-.01-.32-.02-.49-.03-.31,2.42-.7,4.83-.88,7.26-.03.44.8.92,1.25,1.39.37-.53,1.1-1.1,1.06-1.61-.2-2.35-.6-4.68-.94-7.01" style="fill: #fff;"/>
          <path d="M288.4,182.05v2.95c-4.03,1.2-4.11,1.21-3.65,7.02.29,3.62,3.53.8,4.97,2.23.66,2.76.52,2.95-2.34,2.96-1.95.01-3.88-.03-5.83.01-1.26.02-1.78-.42-1.77-1.77.05-7.53.03-15.06,0-22.6-.01-1.27.39-1.85,1.74-1.8,2.31.05,4.65.05,6.98,0,1.3-.03,1.77.7,1.47,1.72-.2.68-.89,1.63-1.47,1.72-3.76.53-3.46.5-3.86,4.25-.35,3.22,1.54,3.3,3.76,3.31" style="fill: #fff;"/>
          <path d="M303.92,184.21c0,3.65-.09,7.31.03,10.95.07,2.2-1.28,2-2.73,2.07-1.6.08-2.16-.46-2.15-2.11.08-7.3.09-14.6,0-21.91-.03-1.82.66-2.22,2.32-2.19,1.64.02,2.64.2,2.56,2.24-.13,3.64-.03,7.3-.03,10.95" style="fill: #fff;"/>
          <path d="M247.24,184.06c0,3.73-.08,7.46.05,11.19.05,1.82-.85,2.01-2.28,1.98-1.39-.05-2.6.08-2.58-1.97.08-7.46.07-14.92.01-22.38-.02-2.14,1.36-1.78,2.66-1.84,1.35-.07,2.23.11,2.18,1.82-.11,3.74-.04,7.47-.04,11.2" style="fill: #fff;"/>
        </g>
      </g>
      <g>
        <path d="M108.26,138.53c5.45,1.13,10.62,2.19,15.77,3.26,7.9,1.66,15.8,3.34,23.7,4.99,4.63.96,5.99,2.6,5.99,7.35,0,11.5.01,23.01.01,34.52-.01,3.73-1.74,6.02-5.4,6.78-19.68,4.09-39.37,8.15-59.07,12.13-4.98,1.01-10.04-1.59-12.21-6.17-9.27-19.67-18.49-39.35-27.71-59.04-1.15-2.45-.87-4.9.63-7.08,6.29-9.17,12.5-18.39,19.08-27.34,1.38-1.87,4.06-3.33,6.39-3.84,10.45-2.3,20.98-4.34,31.53-6.12,2.73-.46,5.81-.11,8.48.69,10.48,3.15,20.85,6.61,31.27,9.98,3.53,1.15,4.48,2.44,4.22,6.19-.37,5.26-.82,10.53-1.34,15.8-.28,2.88-2.09,4.57-4.98,4.41-4.64-.28-9.3-.68-13.91-1.28-3.6-.48-4.6-1.99-4.33-5.56.31-4.3.14-4.63-4.19-5.11-7.49-.85-14.98-1.59-22.5-2.25-4.55-.4-7.59,2.49-7.61,7.07-.04,14.91-.08,29.85-.09,44.78,0,4.93,3.03,8.21,7.98,8.52,5.35.32,10.72.54,16.09.68,4.85.13,8.35-2.76,9.45-7.6.12-.52.19-1.07.36-1.58,1.91-5.79-.02-10.96-8.1-12.1-2.07-.29-4.11-.83-6.14-1.36-4.2-1.07-6.46-4.2-5.81-8.48.59-3.99,1.56-7.91,2.44-12.24" style="fill: #fff;"/>
        <path d="M119.06,90.66c-5.65-2.08-11.24-1.87-17.15-.63.23-3.61.41-6.91.67-10.23,1.66-21.37,3.32-42.74,4.98-64.12.19-2.4.38-4.81.54-7.2C108.42,3.41,112.22-.2,117.05,0c4.86.2,8.51,4.05,8.19,9.17-.52,9.15-1.3,18.28-2,27.42-.87,11.39-1.75,22.77-2.63,34.16-.52,6.55-1.02,13.11-1.55,19.9" style="fill: #fff;"/>
        <path d="M151.24,101.07c-5.51-1.78-10.94-3.54-16.57-5.35,2.55-6.75,5.03-13.33,7.52-19.89,6.04-15.95,12.07-31.91,18.12-47.85,1.65-4.33,4.9-6.3,9.45-5.8,3.93.42,7.06,3.5,7.5,7.68.15,1.42-.1,2.98-.6,4.31-8.2,21.85-16.48,43.67-24.75,65.5-.14.39-.38.79-.67,1.4" style="fill: #fff;"/>
        <path d="M86.19,93.06c-5.72,1.18-11.11,2.29-16.8,3.47-.15-.4-.44-.99-.62-1.62-6.7-22.05-13.42-44.09-20.08-66.15-1.73-5.72,1.16-10.41,6.88-11.51,4.3-.81,8.16,1.79,9.61,6.55,6.51,21.37,13,42.75,19.5,64.14.49,1.62.96,3.24,1.51,5.12" style="fill: #fff;"/>
        <path d="M43.37,129.59c-7.67-8.76-15.09-17.22-22.51-25.7-6.1-6.95-12.22-13.88-18.25-20.89-3.9-4.51-3.36-9.69,1.2-12.92,3.76-2.66,8.04-2.05,11.41,1.79,8.33,9.45,16.6,18.93,24.9,28.4,3.94,4.5,7.85,9.04,11.84,13.48,1,1.11,1.16,1.9.23,3.18-2.94,4.09-5.77,8.27-8.82,12.66" style="fill: #fff;"/>
      </g>
    </g>
  </g>
</svg>